<svg xmlns="http://www.w3.org/2000/svg" viewBox="0 0 1200 820" width="1200" height="820" role="img">
<defs><radialGradient id="g" cx="32%" cy="28%" r="90%">
<stop offset="0%" stop-color="#F2D9B8"/><stop offset="55%" stop-color="#D9A86B"/><stop offset="100%" stop-color="#A86A2E"/>
</radialGradient><filter id="soft"><feGaussianBlur stdDeviation="0.4"/></filter></defs>
<rect width="1200" height="820" fill="url(#g)"/>
<circle cx="487" cy="606" r="89" fill="#ffffff" opacity="0.042"/><circle cx="970" cy="640" r="28" fill="#ffffff" opacity="0.085"/><circle cx="960" cy="265" r="90" fill="#ffffff" opacity="0.051"/><circle cx="963" cy="553" r="90" fill="#ffffff" opacity="0.073"/><circle cx="308" cy="237" r="39" fill="#ffffff" opacity="0.108"/><circle cx="1071" cy="399" r="21" fill="#ffffff" opacity="0.09"/><circle cx="131" cy="163" r="25" fill="#ffffff" opacity="0.057"/><circle cx="63" cy="275" r="80" fill="#ffffff" opacity="0.084"/><circle cx="793" cy="731" r="74" fill="#ffffff" opacity="0.066"/><circle cx="1181" cy="455" r="37" fill="#ffffff" opacity="0.109"/><circle cx="199" cy="36" r="37" fill="#ffffff" opacity="0.075"/><circle cx="528" cy="688" r="75" fill="#ffffff" opacity="0.1"/><circle cx="616" cy="431" r="84" fill="#ffffff" opacity="0.105"/><circle cx="1175" cy="359" r="88" fill="#ffffff" opacity="0.083"/><g transform="translate(600,410)" fill="none" stroke="#FFF8F0" stroke-width="9" stroke-linecap="round" stroke-linejoin="round" opacity="0.92"><path d="M-130 80 L0 -80 L130 80 Z"/><path d="M-92 35 L92 35"/><path d="M-58 -8 L58 -8"/><circle cx="0" cy="-60" r="14" fill="#FFF8F0" stroke="none"/></g>
</svg>